<?xml version="1.0" encoding="UTF-8" standalone="no"?>
<svg xmlns="http://www.w3.org/2000/svg" width="100%" height="100%" viewBox="0 0 177.57125 28" version="1.1">
    <g transform="translate(-118.00627,-124.14456)" style="fill:#ffffff">
        <path d="m 122.72627,135.30456 q 2,-3.68 5.84,-3.68 3.84,0 5.64,2.36 1.84,2.36 1.84,6.24 l 0,11.36 -4.72,0 0,-11.36 q 0,-2.16 -1.04,-3.24 -1.04,-1.12 -2.92,-1.12 -1.88,0 -3.24,1.68 -1.32,1.68 -1.4,5.04 l 0,9 -4.72,0 0,-27.44 4.72,0 0,11.16 z"/>
        <path d="m 150.56815,131.62456 q 1.96,0 3.68,0.64 1.72,0.6 2.96,1.88 2.76,2.8 2.76,7.76 0,4.88 -2.76,7.68 -2.48,2.56 -6.64,2.56 -4.16,0 -6.72,-2.56 -2.76,-2.76 -2.76,-7.68 0,-5 2.76,-7.76 2.52,-2.52 6.72,-2.52 z m 4.68,10.24 q 0,-3.08 -1.2,-4.6 -1.2,-1.56 -3.36,-1.56 -2.12,0 -3.48,1.56 -1.36,1.52 -1.36,4.6 0,3.08 1.2,4.64 1.24,1.52 3.36,1.52 2.12,0 3.48,-1.52 1.36,-1.56 1.36,-4.64 z"/>
        <path d="m 172.9844,131.62456 q 1.84,0 3.28,0.64 1.48,0.6 2.48,1.6 2,1.92 2.36,4.84 l -4.76,0.12 q -0.32,-1.28 -1.2,-2.12 -0.84,-0.84 -1.96,-0.84 -1.12,0 -1.92,0.36 -0.8,0.32 -1.4,1.04 -1.36,1.68 -1.36,4.64 0,2.96 1.28,4.48 1.28,1.48 3.08,1.48 1.84,0 2.64,-0.84 0.84,-0.88 0.84,-2.36 l 4.76,0 q 0,3.2 -2.12,5.32 -2.16,2.16 -6.04,2.16 -3.84,0 -6.44,-2.8 -2.76,-3 -2.76,-7.48 0,-4.72 2.76,-7.56 2.6,-2.68 6.48,-2.68 z"/>
        <path d="m 191.47627,135.30456 q 2,-3.68 5.84,-3.68 3.84,0 5.64,2.36 1.84,2.36 1.84,6.24 l 0,11.36 -4.72,0 0,-11.36 q 0,-2.16 -1.04,-3.24 -1.04,-1.12 -2.92,-1.12 -1.88,0 -3.24,1.68 -1.32,1.68 -1.4,5.04 l 0,9 -4.72,0 0,-27.44 4.72,0 0,11.16 z"/>
        <path d="m 210.23815,147.74456 10.08,-11.76 -10.08,0 0,-3.84 15.28,0 0,3.84 -9.76,11.76 9.76,0 0,3.84 -15.28,0 0,-3.84 z"/>
        <path d="m 245.00377,134.46456 q 1,1.28 1.48,2.96 0.52,1.68 0.52,3.08 0,1.4 -0.16,2.52 l -12.56,0 q 0.08,2.36 1.16,3.84 1.08,1.48 3.28,1.48 2.92,0 3.48,-2.56 l 4.76,0 q -0.48,2.92 -2.68,4.6 -2.28,1.76 -5.56,1.76 -3.84,0 -6.44,-2.8 -2.68,-2.92 -2.68,-7.48 0,-4.68 2.68,-7.52 2.56,-2.72 6.44,-2.72 4.04,0 6.28,2.84 z m -6.24,0.92 q -2,0 -3.12,1.32 -1.12,1.28 -1.32,3.32 l 8.28,0 q 0,-3.16 -2,-4.24 -0.76,-0.4 -1.84,-0.4 z"/>
        <path d="m 245.00377,134.46456 q 1,1.28 1.48,2.96 0.52,1.68 0.52,3.08 0,1.4 -0.16,2.52 l -12.56,0 q 0.08,2.36 1.16,3.84 1.08,1.48 3.28,1.48 2.92,0 3.48,-2.56 l 4.76,0 q -0.48,2.92 -2.68,4.6 -2.28,1.76 -5.56,1.76 -3.84,0 -6.44,-2.8 -2.68,-2.92 -2.68,-7.48 0,-4.68 2.68,-7.52 2.56,-2.72 6.44,-2.72 4.04,0 6.28,2.84 z m -6.24,0.92 q -2,0 -3.12,1.32 -1.12,1.28 -1.32,3.32 l 8.28,0 q 0,-3.16 -2,-4.24 -0.76,-0.4 -1.84,-0.4 z"/>
        <path d="m 257.33565,135.30456 q 2,-3.68 5.84,-3.68 3.84,0 5.64,2.36 1.84,2.36 1.84,6.24 l 0,11.36 -4.72,0 0,-11.36 q 0,-2.16 -1.04,-3.24 -1.04,-1.12 -2.92,-1.12 -1.88,0 -3.24,1.68 -1.32,1.68 -1.4,5.04 l 0,9 -4.72,0 0,-27.44 4.72,0 0,11.16 z"/>
        <path d="m 282.17752,135.50456 q 1.92,-3.88 6.16,-3.88 3.6,0 5.4,2.36 1.84,2.36 1.84,6.24 l 0,11.36 -4.72,0 0,-11.36 q 0,-2.16 -1.04,-3.24 -1.04,-1.12 -2.92,-1.12 -1.88,0 -3.24,1.68 -1.32,1.68 -1.4,5.04 l 0,9 -4.72,0 0,-19.44 4.12,0 0.52,3.36 z"/>
    </g>
</svg>
