<?xml version="1.0" encoding="UTF-8" standalone="no"?>
<!-- Created with Inkscape (http://www.inkscape.org/) -->

<svg
   xmlns:dc="http://purl.org/dc/elements/1.1/"
   xmlns:cc="http://creativecommons.org/ns#"
   xmlns:rdf="http://www.w3.org/1999/02/22-rdf-syntax-ns#"
   xmlns:svg="http://www.w3.org/2000/svg"
   xmlns="http://www.w3.org/2000/svg"
   xmlns:sodipodi="http://sodipodi.sourceforge.net/DTD/sodipodi-0.dtd"
   xmlns:inkscape="http://www.inkscape.org/namespaces/inkscape"
   width="50.114552mm"
   height="7.9022222mm"
   viewBox="0 0 177.57125 28"
   id="svg2"
   version="1.1"
   inkscape:version="0.91 r13725"
   sodipodi:docname="claim.svg">
  <defs
     id="defs4" />
  <sodipodi:namedview
     id="base"
     pagecolor="#ffffff"
     bordercolor="#666666"
     borderopacity="1.0"
     inkscape:pageopacity="0.0"
     inkscape:pageshadow="2"
     inkscape:zoom="3.959798"
     inkscape:cx="64.904532"
     inkscape:cy="-35.350466"
     inkscape:document-units="px"
     inkscape:current-layer="text4182"
     showgrid="false"
     inkscape:window-width="1920"
     inkscape:window-height="1027"
     inkscape:window-x="0"
     inkscape:window-y="0"
     inkscape:window-maximized="1"
     fit-margin-top="0"
     fit-margin-left="0"
     fit-margin-right="0"
     fit-margin-bottom="0" />
  <metadata
     id="metadata7">
    <rdf:RDF>
      <cc:Work
         rdf:about="">
        <dc:format>image/svg+xml</dc:format>
        <dc:type
           rdf:resource="http://purl.org/dc/dcmitype/StillImage" />
        <dc:title></dc:title>
      </cc:Work>
    </rdf:RDF>
  </metadata>
  <g
     inkscape:label="Ebene 1"
     inkscape:groupmode="layer"
     id="layer1"
     transform="translate(-118.00627,-124.14456)">
    <g
       clip-path="none"

       id="text4182">
      <path
         d="m 122.72627,135.30456 q 2,-3.68 5.84,-3.68 3.84,0 5.64,2.36 1.84,2.36 1.84,6.24 l 0,11.36 -4.72,0 0,-11.36 q 0,-2.16 -1.04,-3.24 -1.04,-1.12 -2.92,-1.12 -1.88,0 -3.24,1.68 -1.32,1.68 -1.4,5.04 l 0,9 -4.72,0 0,-27.44 4.72,0 0,11.16 z"
         style="font-style:normal;font-variant:normal;font-weight:bold;font-stretch:normal;font-size:40px;line-height:125%;font-family:Karla;-inkscape-font-specification:'Karla, Bold';text-align:start;writing-mode:lr-tb;text-anchor:start;fill:#434343;fill-opacity:1"
         id="path4231" />
      <path
         d="m 150.56815,131.62456 q 1.96,0 3.68,0.64 1.72,0.6 2.96,1.88 2.76,2.8 2.76,7.76 0,4.88 -2.76,7.68 -2.48,2.56 -6.64,2.56 -4.16,0 -6.72,-2.56 -2.76,-2.76 -2.76,-7.68 0,-5 2.76,-7.76 2.52,-2.52 6.72,-2.52 z m 4.68,10.24 q 0,-3.08 -1.2,-4.6 -1.2,-1.56 -3.36,-1.56 -2.12,0 -3.48,1.56 -1.36,1.52 -1.36,4.6 0,3.08 1.2,4.64 1.24,1.52 3.36,1.52 2.12,0 3.48,-1.52 1.36,-1.56 1.36,-4.64 z"
         style="font-style:normal;font-variant:normal;font-weight:bold;font-stretch:normal;font-size:40px;line-height:125%;font-family:Karla;-inkscape-font-specification:'Karla, Bold';text-align:start;writing-mode:lr-tb;text-anchor:start;fill:#434343;fill-opacity:1"
         id="path4233" />
      <path
         d="m 172.9844,131.62456 q 1.84,0 3.28,0.64 1.48,0.6 2.48,1.6 2,1.92 2.36,4.84 l -4.76,0.12 q -0.32,-1.28 -1.2,-2.12 -0.84,-0.84 -1.96,-0.84 -1.12,0 -1.92,0.36 -0.8,0.32 -1.4,1.04 -1.36,1.68 -1.36,4.64 0,2.96 1.28,4.48 1.28,1.48 3.08,1.48 1.84,0 2.64,-0.84 0.84,-0.88 0.84,-2.36 l 4.76,0 q 0,3.2 -2.12,5.32 -2.16,2.16 -6.04,2.16 -3.84,0 -6.44,-2.8 -2.76,-3 -2.76,-7.48 0,-4.72 2.76,-7.56 2.6,-2.68 6.48,-2.68 z"
         style="font-style:normal;font-variant:normal;font-weight:bold;font-stretch:normal;font-size:40px;line-height:125%;font-family:Karla;-inkscape-font-specification:'Karla, Bold';text-align:start;writing-mode:lr-tb;text-anchor:start;fill:#434343;fill-opacity:1"
         id="path4235" />
      <path
         d="m 191.47627,135.30456 q 2,-3.68 5.84,-3.68 3.84,0 5.64,2.36 1.84,2.36 1.84,6.24 l 0,11.36 -4.72,0 0,-11.36 q 0,-2.16 -1.04,-3.24 -1.04,-1.12 -2.92,-1.12 -1.88,0 -3.24,1.68 -1.32,1.68 -1.4,5.04 l 0,9 -4.72,0 0,-27.44 4.72,0 0,11.16 z"
         style="font-style:normal;font-variant:normal;font-weight:bold;font-stretch:normal;font-size:40px;line-height:125%;font-family:Karla;-inkscape-font-specification:'Karla, Bold';text-align:start;writing-mode:lr-tb;text-anchor:start;fill:#434343;fill-opacity:1"
         id="path4237" />
      <path
         d="m 210.23815,147.74456 10.08,-11.76 -10.08,0 0,-3.84 15.28,0 0,3.84 -9.76,11.76 9.76,0 0,3.84 -15.28,0 0,-3.84 z"
         style="font-style:normal;font-variant:normal;font-weight:bold;font-stretch:normal;font-size:40px;line-height:125%;font-family:Karla;-inkscape-font-specification:'Karla, Bold';text-align:start;writing-mode:lr-tb;text-anchor:start;fill:#434343;fill-opacity:1"
         id="path4239" />
      <path
         d="m 245.00377,134.46456 q 1,1.28 1.48,2.96 0.52,1.68 0.52,3.08 0,1.4 -0.16,2.52 l -12.56,0 q 0.08,2.36 1.16,3.84 1.08,1.48 3.28,1.48 2.92,0 3.48,-2.56 l 4.76,0 q -0.48,2.92 -2.68,4.6 -2.28,1.76 -5.56,1.76 -3.84,0 -6.44,-2.8 -2.68,-2.92 -2.68,-7.48 0,-4.68 2.68,-7.52 2.56,-2.72 6.44,-2.72 4.04,0 6.28,2.84 z m -6.24,0.92 q -2,0 -3.12,1.32 -1.12,1.28 -1.32,3.32 l 8.28,0 q 0,-3.16 -2,-4.24 -0.76,-0.4 -1.84,-0.4 z"
         style="font-style:normal;font-variant:normal;font-weight:bold;font-stretch:normal;font-size:40px;line-height:125%;font-family:Karla;-inkscape-font-specification:'Karla, Bold';text-align:start;writing-mode:lr-tb;text-anchor:start;fill:#434343;fill-opacity:1"
         id="path4241" />
      <path
         d="m 257.33565,135.30456 q 2,-3.68 5.84,-3.68 3.84,0 5.64,2.36 1.84,2.36 1.84,6.24 l 0,11.36 -4.72,0 0,-11.36 q 0,-2.16 -1.04,-3.24 -1.04,-1.12 -2.92,-1.12 -1.88,0 -3.24,1.68 -1.32,1.68 -1.4,5.04 l 0,9 -4.72,0 0,-27.44 4.72,0 0,11.16 z"
         style="font-style:normal;font-variant:normal;font-weight:bold;font-stretch:normal;font-size:40px;line-height:125%;font-family:Karla;-inkscape-font-specification:'Karla, Bold';text-align:start;writing-mode:lr-tb;text-anchor:start;fill:#434343;fill-opacity:1"
         id="path4243" />
      <path
         d="m 282.17752,135.50456 q 1.92,-3.88 6.16,-3.88 3.6,0 5.4,2.36 1.84,2.36 1.84,6.24 l 0,11.36 -4.72,0 0,-11.36 q 0,-2.16 -1.04,-3.24 -1.04,-1.12 -2.92,-1.12 -1.88,0 -3.24,1.68 -1.32,1.68 -1.4,5.04 l 0,9 -4.72,0 0,-19.44 4.12,0 0.52,3.36 z"
         style="font-style:normal;font-variant:normal;font-weight:bold;font-stretch:normal;font-size:40px;line-height:125%;font-family:Karla;-inkscape-font-specification:'Karla, Bold';text-align:start;writing-mode:lr-tb;text-anchor:start;fill:#434343;fill-opacity:1"
         id="path4245" />
    </g>
  </g>
</svg>
